{
    "asset": {
        "copyright": "2019 (c) Adobe Inc.",
        "generator": "Adobe Dimension - 6ec80289112e6a9659ad01085610859534b97229",
        "version": "2.0"
    },
    "accessors": [
        {
            "bufferView": 0,
            "componentType": 5126,
            "count": 14112,
            "type": "VEC3",
            "max": [
                0.11999999731779099,
                0.03999999910593033,
                0.1199968233704567
            ],
            "min": [
                -0.06710314750671387,
                0.0,
                -2.098146545392865e-8
            ]
        },
        {
            "bufferView": 1,
            "componentType": 5126,
            "count": 14112,
            "type": "VEC3"
        },
        {
            "bufferView": 2,
            "componentType": 5126,
            "count": 14112,
            "type": "VEC2"
        },
        {
            "bufferView": 3,
            "componentType": 5125,
            "count": 14112,
            "type": "SCALAR",
            "max": [
                14111.0
            ],
            "min": [
                0.0
            ]
        }
    ],
    "bufferViews": [
        {
            "buffer": 0,
            "byteOffset": 0,
            "byteLength": 169344,
            "target": 34962
        },
        {
            "buffer": 0,
            "byteOffset": 169344,
            "byteLength": 169344,
            "target": 34962
        },
        {
            "buffer": 0,
            "byteOffset": 338688,
            "byteLength": 112896,
            "target": 34962
        },
        {
            "buffer": 0,
            "byteOffset": 451584,
            "byteLength": 56448,
            "target": 34963
        }
    ],
    "buffers": [
        {
            "byteLength": 508032,
            "uri": "pipe_binary.bin"
        }
    ],
    "cameras": [
        {
            "perspective": {
                "znear": 0.000010000000656873454,
                "yfov": 0.6024156808853149,
                "zfar": 2.0,
                "aspectRatio": 1.3333333730697632
            },
            "type": "perspective",
            "name": "render_camera"
        }
    ],
    "materials": [
        {
            "pbrMetallicRoughness": {
                "baseColorFactor": [
                    0.0030352699104696514,
                    0.045186202973127368,
                    0.8879231810569763,
                    1.0
                ],
                "metallicFactor": 0.0
            },
            "name": "Matte"
        }
    ],
    "meshes": [
        {
            "name": "PROCEDURAL_MESHES_TORUS#",
            "primitives": [
                {
                    "attributes": {
                        "POSITION": 0,
                        "NORMAL": 1,
                        "TEXCOORD_0": 2
                    },
                    "indices": 3,
                    "material": 0
                }
            ]
        }
    ],
    "nodes": [
        {
            "translation": [
                0.21146278083324433,
                0.10152578353881836,
                0.5189346671104431
            ],
            "rotation": [
                -0.12059047073125839,
                0.379409521818161,
                0.04995020851492882,
                0.9159756302833557
            ],
            "scale": [
                1.0,
                1.0,
                0.9999999403953552
            ],
            "camera": 0,
            "name": "render_camera_n3d"
        },
        {
            "translation": [
                -0.07841571420431137,
                0.09213244915008545,
                -0.03141837194561958
            ],
            "rotation": [
                0.7480983138084412,
                -0.004829108249396086,
                0.6433417797088623,
                0.162594273686409
            ],
            "scale": [
                1.3000003099441529,
                1.3000001907348633,
                1.2999999523162842
            ],
            "mesh": 0,
            "name": "Torus 2"
        }
    ],
    "scenes": [
        {
            "nodes": [
                0,
                1
            ],
            "name": "scene"
        }
    ],
    "scene": 0
}